<mxfile host="app.diagrams.net" agent="Mozilla/5.0 (Windows NT 10.0; Win64; x64) AppleWebKit/537.36 (KHTML, like Gecko) Chrome/130.0.0.0 Safari/537.36" version="24.8.4" pages="2">
  <diagram id="C5RBs43oDa-KdzZeNtuy" name="Page-1">
    <mxGraphModel dx="2390" dy="1230" grid="1" gridSize="10" guides="1" tooltips="1" connect="1" arrows="1" fold="1" page="1" pageScale="1" pageWidth="827" pageHeight="1169" math="0" shadow="0">
      <root>
        <mxCell id="WIyWlLk6GJQsqaUBKTNV-0" />
        <mxCell id="WIyWlLk6GJQsqaUBKTNV-1" parent="WIyWlLk6GJQsqaUBKTNV-0" />
        <mxCell id="EcIhPKk2g2EHWNbsYNkr-4" style="edgeStyle=orthogonalEdgeStyle;rounded=0;orthogonalLoop=1;jettySize=auto;html=1;exitX=0.5;exitY=1;exitDx=0;exitDy=0;" edge="1" parent="WIyWlLk6GJQsqaUBKTNV-1" source="vQw6qridugHL2fAcngwt-1" target="EcIhPKk2g2EHWNbsYNkr-1">
          <mxGeometry relative="1" as="geometry" />
        </mxCell>
        <mxCell id="EcIhPKk2g2EHWNbsYNkr-3" value="" style="endArrow=classic;html=1;rounded=0;entryX=0.75;entryY=0;entryDx=0;entryDy=0;" edge="1" parent="WIyWlLk6GJQsqaUBKTNV-1" source="EcIhPKk2g2EHWNbsYNkr-1" target="EcIhPKk2g2EHWNbsYNkr-29">
          <mxGeometry width="50" height="50" relative="1" as="geometry">
            <mxPoint x="350" y="410" as="sourcePoint" />
            <mxPoint x="400" y="360" as="targetPoint" />
          </mxGeometry>
        </mxCell>
        <mxCell id="EcIhPKk2g2EHWNbsYNkr-15" value="&lt;font face=&quot;Georgia&quot; style=&quot;font-size: 18px;&quot;&gt;Text output is converted to speech using text-to-speech engine&lt;/font&gt;" style="rounded=1;whiteSpace=wrap;html=1;" vertex="1" parent="WIyWlLk6GJQsqaUBKTNV-1">
          <mxGeometry x="1400" y="690" width="226" height="130" as="geometry" />
        </mxCell>
        <mxCell id="EcIhPKk2g2EHWNbsYNkr-17" value="&lt;font face=&quot;Georgia&quot; style=&quot;font-size: 18px;&quot;&gt;After the session ends or refreshes, all stored inputs are deleted from the node&lt;/font&gt;" style="rounded=1;whiteSpace=wrap;html=1;" vertex="1" parent="WIyWlLk6GJQsqaUBKTNV-1">
          <mxGeometry x="1370" y="440" width="240" height="145" as="geometry" />
        </mxCell>
        <mxCell id="EcIhPKk2g2EHWNbsYNkr-18" value="" style="endArrow=classic;html=1;rounded=0;exitX=0.5;exitY=0;exitDx=0;exitDy=0;entryX=0.5;entryY=1;entryDx=0;entryDy=0;" edge="1" parent="WIyWlLk6GJQsqaUBKTNV-1" source="EcIhPKk2g2EHWNbsYNkr-15" target="EcIhPKk2g2EHWNbsYNkr-17">
          <mxGeometry width="50" height="50" relative="1" as="geometry">
            <mxPoint x="420" y="740" as="sourcePoint" />
            <mxPoint x="446" y="650" as="targetPoint" />
          </mxGeometry>
        </mxCell>
        <mxCell id="EcIhPKk2g2EHWNbsYNkr-19" value="&lt;font face=&quot;Georgia&quot; style=&quot;font-size: 18px;&quot;&gt;Application resets and starts from the beginning&lt;/font&gt;" style="rounded=1;whiteSpace=wrap;html=1;" vertex="1" parent="WIyWlLk6GJQsqaUBKTNV-1">
          <mxGeometry x="1400" y="250" width="210" height="100" as="geometry" />
        </mxCell>
        <mxCell id="EcIhPKk2g2EHWNbsYNkr-20" value="" style="endArrow=classic;html=1;rounded=0;exitX=0.5;exitY=0;exitDx=0;exitDy=0;entryX=0.5;entryY=1;entryDx=0;entryDy=0;" edge="1" parent="WIyWlLk6GJQsqaUBKTNV-1" source="EcIhPKk2g2EHWNbsYNkr-17" target="EcIhPKk2g2EHWNbsYNkr-19">
          <mxGeometry width="50" height="50" relative="1" as="geometry">
            <mxPoint x="457" y="770" as="sourcePoint" />
            <mxPoint x="456" y="660" as="targetPoint" />
          </mxGeometry>
        </mxCell>
        <mxCell id="EcIhPKk2g2EHWNbsYNkr-22" value="" style="endArrow=classic;html=1;rounded=0;entryX=0.406;entryY=0.983;entryDx=0;entryDy=0;entryPerimeter=0;exitX=0.5;exitY=0;exitDx=0;exitDy=0;" edge="1" parent="WIyWlLk6GJQsqaUBKTNV-1" source="EcIhPKk2g2EHWNbsYNkr-19" target="EcIhPKk2g2EHWNbsYNkr-21">
          <mxGeometry width="50" height="50" relative="1" as="geometry">
            <mxPoint x="430" y="170" as="sourcePoint" />
            <mxPoint x="480" y="120" as="targetPoint" />
          </mxGeometry>
        </mxCell>
        <mxCell id="EcIhPKk2g2EHWNbsYNkr-58" style="edgeStyle=orthogonalEdgeStyle;rounded=0;orthogonalLoop=1;jettySize=auto;html=1;exitX=0.5;exitY=1;exitDx=0;exitDy=0;" edge="1" parent="WIyWlLk6GJQsqaUBKTNV-1" source="EcIhPKk2g2EHWNbsYNkr-29" target="EcIhPKk2g2EHWNbsYNkr-57">
          <mxGeometry relative="1" as="geometry">
            <Array as="points">
              <mxPoint x="100" y="620" />
              <mxPoint x="610" y="620" />
            </Array>
          </mxGeometry>
        </mxCell>
        <mxCell id="EcIhPKk2g2EHWNbsYNkr-60" style="edgeStyle=orthogonalEdgeStyle;rounded=0;orthogonalLoop=1;jettySize=auto;html=1;exitX=1;exitY=0.5;exitDx=0;exitDy=0;entryX=0;entryY=1;entryDx=0;entryDy=0;" edge="1" parent="WIyWlLk6GJQsqaUBKTNV-1" source="EcIhPKk2g2EHWNbsYNkr-29" target="EcIhPKk2g2EHWNbsYNkr-59">
          <mxGeometry relative="1" as="geometry" />
        </mxCell>
        <mxCell id="EcIhPKk2g2EHWNbsYNkr-36" value="WAKE WORD&lt;br&gt;(OPTIONAL)" style="shape=hexagon;perimeter=hexagonPerimeter2;whiteSpace=wrap;html=1;fixedSize=1;fillColor=#fad9d5;strokeColor=#ae4132;" vertex="1" parent="WIyWlLk6GJQsqaUBKTNV-1">
          <mxGeometry x="185" y="110" width="110" height="75" as="geometry" />
        </mxCell>
        <mxCell id="EcIhPKk2g2EHWNbsYNkr-37" value="" style="endArrow=classic;html=1;rounded=0;entryX=0.5;entryY=0;entryDx=0;entryDy=0;exitX=0.5;exitY=1;exitDx=0;exitDy=0;" edge="1" parent="WIyWlLk6GJQsqaUBKTNV-1" source="EcIhPKk2g2EHWNbsYNkr-23" target="EcIhPKk2g2EHWNbsYNkr-36">
          <mxGeometry width="50" height="50" relative="1" as="geometry">
            <mxPoint x="350" y="390" as="sourcePoint" />
            <mxPoint x="400" y="340" as="targetPoint" />
          </mxGeometry>
        </mxCell>
        <mxCell id="EcIhPKk2g2EHWNbsYNkr-38" value="" style="endArrow=classic;html=1;rounded=0;exitX=0.5;exitY=1;exitDx=0;exitDy=0;" edge="1" parent="WIyWlLk6GJQsqaUBKTNV-1" source="EcIhPKk2g2EHWNbsYNkr-36">
          <mxGeometry width="50" height="50" relative="1" as="geometry">
            <mxPoint x="350" y="390" as="sourcePoint" />
            <mxPoint x="100" y="210" as="targetPoint" />
          </mxGeometry>
        </mxCell>
        <mxCell id="EcIhPKk2g2EHWNbsYNkr-44" value="&lt;font style=&quot;font-size: 18px;&quot;&gt;screenshot&lt;/font&gt;" style="rounded=1;whiteSpace=wrap;html=1;fillColor=#dae8fc;strokeColor=#6c8ebf;" vertex="1" parent="WIyWlLk6GJQsqaUBKTNV-1">
          <mxGeometry x="1030" y="390" width="200" height="140" as="geometry" />
        </mxCell>
        <mxCell id="EcIhPKk2g2EHWNbsYNkr-45" value="&lt;font style=&quot;font-size: 18px;&quot;&gt;application reads the text that is copied&amp;nbsp;&lt;/font&gt;" style="rounded=1;whiteSpace=wrap;html=1;fillColor=#dae8fc;strokeColor=#6c8ebf;" vertex="1" parent="WIyWlLk6GJQsqaUBKTNV-1">
          <mxGeometry x="1050" y="40" width="160" height="120" as="geometry" />
        </mxCell>
        <mxCell id="EcIhPKk2g2EHWNbsYNkr-47" value="" style="endArrow=classic;html=1;rounded=0;exitX=0.5;exitY=0;exitDx=0;exitDy=0;entryX=0;entryY=0.25;entryDx=0;entryDy=0;exitPerimeter=0;" edge="1" parent="WIyWlLk6GJQsqaUBKTNV-1" source="EcIhPKk2g2EHWNbsYNkr-51" target="EcIhPKk2g2EHWNbsYNkr-45">
          <mxGeometry width="50" height="50" relative="1" as="geometry">
            <mxPoint x="880" y="130" as="sourcePoint" />
            <mxPoint x="930" y="80" as="targetPoint" />
          </mxGeometry>
        </mxCell>
        <mxCell id="EcIhPKk2g2EHWNbsYNkr-49" value="" style="endArrow=classic;html=1;rounded=0;exitX=0.5;exitY=1;exitDx=0;exitDy=0;entryX=0;entryY=0.5;entryDx=0;entryDy=0;exitPerimeter=0;" edge="1" parent="WIyWlLk6GJQsqaUBKTNV-1" source="EcIhPKk2g2EHWNbsYNkr-51" target="EcIhPKk2g2EHWNbsYNkr-44">
          <mxGeometry width="50" height="50" relative="1" as="geometry">
            <mxPoint x="880" y="200" as="sourcePoint" />
            <mxPoint x="930" y="150" as="targetPoint" />
          </mxGeometry>
        </mxCell>
        <mxCell id="EcIhPKk2g2EHWNbsYNkr-50" value="" style="endArrow=classic;html=1;rounded=0;exitX=1;exitY=0;exitDx=0;exitDy=0;entryX=0.5;entryY=1;entryDx=0;entryDy=0;" edge="1" parent="WIyWlLk6GJQsqaUBKTNV-1" source="EcIhPKk2g2EHWNbsYNkr-65" target="EcIhPKk2g2EHWNbsYNkr-15">
          <mxGeometry width="50" height="50" relative="1" as="geometry">
            <mxPoint x="1020" y="1045" as="sourcePoint" />
            <mxPoint x="380" y="970" as="targetPoint" />
          </mxGeometry>
        </mxCell>
        <mxCell id="EcIhPKk2g2EHWNbsYNkr-75" style="edgeStyle=orthogonalEdgeStyle;rounded=0;orthogonalLoop=1;jettySize=auto;html=1;exitX=1;exitY=0;exitDx=0;exitDy=15;exitPerimeter=0;entryX=1;entryY=0.75;entryDx=0;entryDy=0;" edge="1" parent="WIyWlLk6GJQsqaUBKTNV-1" source="EcIhPKk2g2EHWNbsYNkr-51" target="EcIhPKk2g2EHWNbsYNkr-33">
          <mxGeometry relative="1" as="geometry">
            <Array as="points">
              <mxPoint x="1340" y="355" />
              <mxPoint x="1340" y="853" />
            </Array>
          </mxGeometry>
        </mxCell>
        <mxCell id="EcIhPKk2g2EHWNbsYNkr-51" value="&lt;font style=&quot;font-size: 18px;&quot;&gt;node2&lt;/font&gt;" style="shape=cylinder3;whiteSpace=wrap;html=1;boundedLbl=1;backgroundOutline=1;size=15;fillColor=#60a917;fontColor=#ffffff;strokeColor=#2D7600;" vertex="1" parent="WIyWlLk6GJQsqaUBKTNV-1">
          <mxGeometry x="770" y="340" width="140" height="110" as="geometry" />
        </mxCell>
        <mxCell id="EcIhPKk2g2EHWNbsYNkr-52" value="" style="endArrow=classic;html=1;rounded=0;exitX=1;exitY=0.5;exitDx=0;exitDy=0;entryX=0;entryY=0.5;entryDx=0;entryDy=0;entryPerimeter=0;" edge="1" parent="WIyWlLk6GJQsqaUBKTNV-1" source="EcIhPKk2g2EHWNbsYNkr-59" target="EcIhPKk2g2EHWNbsYNkr-51">
          <mxGeometry width="50" height="50" relative="1" as="geometry">
            <mxPoint x="870" y="200" as="sourcePoint" />
            <mxPoint x="930" y="150" as="targetPoint" />
          </mxGeometry>
        </mxCell>
        <mxCell id="EcIhPKk2g2EHWNbsYNkr-70" style="edgeStyle=orthogonalEdgeStyle;rounded=0;orthogonalLoop=1;jettySize=auto;html=1;exitX=0.5;exitY=1;exitDx=0;exitDy=0;exitPerimeter=0;" edge="1" parent="WIyWlLk6GJQsqaUBKTNV-1" source="EcIhPKk2g2EHWNbsYNkr-53" target="EcIhPKk2g2EHWNbsYNkr-65">
          <mxGeometry relative="1" as="geometry" />
        </mxCell>
        <mxCell id="EcIhPKk2g2EHWNbsYNkr-76" style="edgeStyle=orthogonalEdgeStyle;rounded=0;orthogonalLoop=1;jettySize=auto;html=1;exitX=1;exitY=0.5;exitDx=0;exitDy=0;entryX=1;entryY=0.5;entryDx=0;entryDy=0;entryPerimeter=0;" edge="1" parent="WIyWlLk6GJQsqaUBKTNV-1" source="EcIhPKk2g2EHWNbsYNkr-45" target="EcIhPKk2g2EHWNbsYNkr-53">
          <mxGeometry relative="1" as="geometry">
            <Array as="points">
              <mxPoint x="1290" y="100" />
              <mxPoint x="1290" y="693" />
            </Array>
          </mxGeometry>
        </mxCell>
        <mxCell id="EcIhPKk2g2EHWNbsYNkr-53" value="&lt;font style=&quot;font-size: 18px;&quot;&gt;node3&lt;/font&gt;" style="shape=cylinder3;whiteSpace=wrap;html=1;boundedLbl=1;backgroundOutline=1;size=15;fillColor=#60a917;fontColor=#ffffff;strokeColor=#2D7600;" vertex="1" parent="WIyWlLk6GJQsqaUBKTNV-1">
          <mxGeometry x="660" y="650" width="210" height="85" as="geometry" />
        </mxCell>
        <mxCell id="EcIhPKk2g2EHWNbsYNkr-56" style="edgeStyle=orthogonalEdgeStyle;rounded=0;orthogonalLoop=1;jettySize=auto;html=1;exitX=1;exitY=0.5;exitDx=0;exitDy=0;entryX=0;entryY=0;entryDx=0;entryDy=56.25;entryPerimeter=0;" edge="1" parent="WIyWlLk6GJQsqaUBKTNV-1" source="EcIhPKk2g2EHWNbsYNkr-33" target="EcIhPKk2g2EHWNbsYNkr-53">
          <mxGeometry relative="1" as="geometry">
            <Array as="points">
              <mxPoint x="1230" y="810" />
              <mxPoint x="1230" y="755" />
              <mxPoint x="640" y="755" />
              <mxPoint x="640" y="706" />
            </Array>
          </mxGeometry>
        </mxCell>
        <mxCell id="EcIhPKk2g2EHWNbsYNkr-63" style="edgeStyle=orthogonalEdgeStyle;rounded=0;orthogonalLoop=1;jettySize=auto;html=1;exitX=0.5;exitY=1;exitDx=0;exitDy=0;exitPerimeter=0;entryX=0.5;entryY=0;entryDx=0;entryDy=0;" edge="1" parent="WIyWlLk6GJQsqaUBKTNV-1" source="EcIhPKk2g2EHWNbsYNkr-57" target="EcIhPKk2g2EHWNbsYNkr-62">
          <mxGeometry relative="1" as="geometry" />
        </mxCell>
        <mxCell id="EcIhPKk2g2EHWNbsYNkr-57" value="&lt;font style=&quot;font-size: 18px;&quot;&gt;node1&lt;/font&gt;" style="shape=cylinder3;whiteSpace=wrap;html=1;boundedLbl=1;backgroundOutline=1;size=15;fillColor=#60a917;fontColor=#ffffff;strokeColor=#2D7600;" vertex="1" parent="WIyWlLk6GJQsqaUBKTNV-1">
          <mxGeometry x="600" y="40" width="130" height="90" as="geometry" />
        </mxCell>
        <mxCell id="EcIhPKk2g2EHWNbsYNkr-59" value="&lt;div&gt;&lt;b&gt;&lt;font style=&quot;font-size: 18px;&quot;&gt;Lama3 &lt;/font&gt;&lt;/b&gt;&lt;br&gt;is used for query understanding&lt;/div&gt;&lt;div&gt;&lt;br&gt;&lt;/div&gt;" style="rhombus;whiteSpace=wrap;html=1;fillColor=#e1d5e7;strokeColor=#9673a6;" vertex="1" parent="WIyWlLk6GJQsqaUBKTNV-1">
          <mxGeometry x="420" y="120" width="150" height="160" as="geometry" />
        </mxCell>
        <mxCell id="EcIhPKk2g2EHWNbsYNkr-61" style="edgeStyle=orthogonalEdgeStyle;rounded=0;orthogonalLoop=1;jettySize=auto;html=1;exitX=0.5;exitY=1;exitDx=0;exitDy=0;entryX=1;entryY=0;entryDx=0;entryDy=15;entryPerimeter=0;" edge="1" parent="WIyWlLk6GJQsqaUBKTNV-1" source="EcIhPKk2g2EHWNbsYNkr-59" target="EcIhPKk2g2EHWNbsYNkr-57">
          <mxGeometry relative="1" as="geometry" />
        </mxCell>
        <mxCell id="EcIhPKk2g2EHWNbsYNkr-64" style="edgeStyle=orthogonalEdgeStyle;rounded=0;orthogonalLoop=1;jettySize=auto;html=1;exitX=0.5;exitY=1;exitDx=0;exitDy=0;entryX=1;entryY=1;entryDx=0;entryDy=0;" edge="1" parent="WIyWlLk6GJQsqaUBKTNV-1" source="EcIhPKk2g2EHWNbsYNkr-62" target="EcIhPKk2g2EHWNbsYNkr-15">
          <mxGeometry relative="1" as="geometry">
            <Array as="points">
              <mxPoint x="178" y="1150" />
              <mxPoint x="1626" y="1150" />
            </Array>
          </mxGeometry>
        </mxCell>
        <mxCell id="EcIhPKk2g2EHWNbsYNkr-62" value="&lt;b&gt;&lt;font style=&quot;font-size: 20px;&quot;&gt;TEXT MODEL&amp;nbsp;&lt;/font&gt;&lt;/b&gt;" style="rhombus;whiteSpace=wrap;html=1;fillColor=#e1d5e7;strokeColor=#9673a6;" vertex="1" parent="WIyWlLk6GJQsqaUBKTNV-1">
          <mxGeometry x="180" y="760" width="185" height="140" as="geometry" />
        </mxCell>
        <mxCell id="EcIhPKk2g2EHWNbsYNkr-67" value="" style="group;fillColor=#d80073;strokeColor=#A50040;fontColor=#ffffff;" vertex="1" connectable="0" parent="WIyWlLk6GJQsqaUBKTNV-1">
          <mxGeometry x="1440" y="21.5" width="160" height="88.5" as="geometry" />
        </mxCell>
        <mxCell id="EcIhPKk2g2EHWNbsYNkr-21" value="" style="shape=parallelogram;perimeter=parallelogramPerimeter;whiteSpace=wrap;html=1;fixedSize=1;fillColor=#d80073;strokeColor=#A50040;fontColor=#ffffff;" vertex="1" parent="EcIhPKk2g2EHWNbsYNkr-67">
          <mxGeometry width="160" height="88.5" as="geometry" />
        </mxCell>
        <mxCell id="EcIhPKk2g2EHWNbsYNkr-24" value="&lt;font style=&quot;font-size: 36px;&quot; face=&quot;Georgia&quot;&gt;END&lt;/font&gt;" style="text;html=1;align=center;verticalAlign=middle;whiteSpace=wrap;rounded=0;fillColor=#d80073;strokeColor=#A50040;fontColor=#ffffff;" vertex="1" parent="EcIhPKk2g2EHWNbsYNkr-67">
          <mxGeometry x="60" y="29.25" width="60" height="30" as="geometry" />
        </mxCell>
        <mxCell id="EcIhPKk2g2EHWNbsYNkr-69" style="edgeStyle=orthogonalEdgeStyle;rounded=0;orthogonalLoop=1;jettySize=auto;html=1;exitX=0.25;exitY=1;exitDx=0;exitDy=0;entryX=0.5;entryY=0;entryDx=0;entryDy=0;entryPerimeter=0;" edge="1" parent="WIyWlLk6GJQsqaUBKTNV-1" source="EcIhPKk2g2EHWNbsYNkr-44" target="EcIhPKk2g2EHWNbsYNkr-53">
          <mxGeometry relative="1" as="geometry" />
        </mxCell>
        <mxCell id="EcIhPKk2g2EHWNbsYNkr-71" style="edgeStyle=orthogonalEdgeStyle;rounded=0;orthogonalLoop=1;jettySize=auto;html=1;exitX=0;exitY=1;exitDx=0;exitDy=-15;exitPerimeter=0;entryX=0.145;entryY=0;entryDx=0;entryDy=4.35;entryPerimeter=0;" edge="1" parent="WIyWlLk6GJQsqaUBKTNV-1" source="EcIhPKk2g2EHWNbsYNkr-51" target="EcIhPKk2g2EHWNbsYNkr-53">
          <mxGeometry relative="1" as="geometry" />
        </mxCell>
        <mxCell id="EcIhPKk2g2EHWNbsYNkr-73" value="" style="group" vertex="1" connectable="0" parent="WIyWlLk6GJQsqaUBKTNV-1">
          <mxGeometry x="1045" y="780" width="170" height="100" as="geometry" />
        </mxCell>
        <mxCell id="EcIhPKk2g2EHWNbsYNkr-7" value="" style="rounded=1;whiteSpace=wrap;html=1;" vertex="1" parent="EcIhPKk2g2EHWNbsYNkr-73">
          <mxGeometry width="170" height="100" as="geometry" />
        </mxCell>
        <mxCell id="EcIhPKk2g2EHWNbsYNkr-33" value="&lt;font face=&quot;Georgia&quot; style=&quot;font-size: 14px;&quot;&gt;Application captures an image after the query is recorded&lt;/font&gt;" style="text;html=1;align=center;verticalAlign=middle;whiteSpace=wrap;rounded=0;fillColor=#dae8fc;strokeColor=#6c8ebf;" vertex="1" parent="EcIhPKk2g2EHWNbsYNkr-73">
          <mxGeometry y="5" width="170" height="90" as="geometry" />
        </mxCell>
        <mxCell id="EcIhPKk2g2EHWNbsYNkr-77" value="" style="group;fillColor=#6a00ff;fontColor=#ffffff;strokeColor=#3700CC;" vertex="1" connectable="0" parent="WIyWlLk6GJQsqaUBKTNV-1">
          <mxGeometry x="35" y="21.5" width="150" height="75" as="geometry" />
        </mxCell>
        <mxCell id="EcIhPKk2g2EHWNbsYNkr-6" value="" style="shape=parallelogram;perimeter=parallelogramPerimeter;whiteSpace=wrap;html=1;fixedSize=1;fillColor=#6a00ff;fontColor=#ffffff;strokeColor=#3700CC;" vertex="1" parent="EcIhPKk2g2EHWNbsYNkr-77">
          <mxGeometry width="150" height="75" as="geometry" />
        </mxCell>
        <mxCell id="EcIhPKk2g2EHWNbsYNkr-23" value="&lt;font style=&quot;font-size: 36px;&quot; face=&quot;Georgia&quot;&gt;START&lt;/font&gt;" style="text;html=1;align=center;verticalAlign=middle;whiteSpace=wrap;rounded=0;fillColor=#6a00ff;fontColor=#ffffff;strokeColor=#3700CC;" vertex="1" parent="EcIhPKk2g2EHWNbsYNkr-77">
          <mxGeometry x="45" y="35" width="60" height="30" as="geometry" />
        </mxCell>
        <mxCell id="EcIhPKk2g2EHWNbsYNkr-78" value="" style="group" vertex="1" connectable="0" parent="WIyWlLk6GJQsqaUBKTNV-1">
          <mxGeometry x="15" y="370" width="230" height="130" as="geometry" />
        </mxCell>
        <mxCell id="EcIhPKk2g2EHWNbsYNkr-1" value="" style="rounded=1;whiteSpace=wrap;html=1;" vertex="1" parent="EcIhPKk2g2EHWNbsYNkr-78">
          <mxGeometry width="230" height="130" as="geometry" />
        </mxCell>
        <mxCell id="EcIhPKk2g2EHWNbsYNkr-26" value="&lt;font face=&quot;Georgia&quot; style=&quot;font-size: 18px;&quot;&gt;User provides input query through speech&lt;/font&gt;" style="text;html=1;align=center;verticalAlign=middle;whiteSpace=wrap;rounded=0;container=1;" vertex="1" parent="EcIhPKk2g2EHWNbsYNkr-78">
          <mxGeometry x="8.214285714285714" y="11.818181818181818" width="213.57142857142856" height="106.36363636363637" as="geometry" />
        </mxCell>
        <mxCell id="EcIhPKk2g2EHWNbsYNkr-79" value="" style="group" vertex="1" connectable="0" parent="WIyWlLk6GJQsqaUBKTNV-1">
          <mxGeometry x="30" y="210" width="190" height="110" as="geometry" />
        </mxCell>
        <mxCell id="vQw6qridugHL2fAcngwt-1" value="" style="rounded=1;whiteSpace=wrap;html=1;" vertex="1" parent="EcIhPKk2g2EHWNbsYNkr-79">
          <mxGeometry width="189.99999999999997" height="110" as="geometry" />
        </mxCell>
        <mxCell id="EcIhPKk2g2EHWNbsYNkr-25" value="&lt;font style=&quot;font-size: 18px;&quot; face=&quot;Georgia&quot;&gt;Starts a continues video stream &amp;amp; STARTS contiues mic usage&amp;nbsp;&lt;/font&gt;" style="text;html=1;align=center;verticalAlign=middle;whiteSpace=wrap;rounded=0;" vertex="1" parent="EcIhPKk2g2EHWNbsYNkr-79">
          <mxGeometry width="189.99999999999997" height="110" as="geometry" />
        </mxCell>
        <mxCell id="EcIhPKk2g2EHWNbsYNkr-80" value="" style="group" vertex="1" connectable="0" parent="WIyWlLk6GJQsqaUBKTNV-1">
          <mxGeometry x="15" y="570" width="225" height="190" as="geometry" />
        </mxCell>
        <mxCell id="EcIhPKk2g2EHWNbsYNkr-2" value="" style="rounded=1;whiteSpace=wrap;html=1;" vertex="1" parent="EcIhPKk2g2EHWNbsYNkr-80">
          <mxGeometry width="225" height="190" as="geometry" />
        </mxCell>
        <mxCell id="EcIhPKk2g2EHWNbsYNkr-29" value="&lt;font face=&quot;Georgia&quot; style=&quot;font-size: 18px;&quot;&gt;Speech is converted to text using speech-to-text engine&lt;/font&gt;" style="text;html=1;align=center;verticalAlign=middle;whiteSpace=wrap;rounded=0;" vertex="1" parent="EcIhPKk2g2EHWNbsYNkr-80">
          <mxGeometry x="6.617647058823529" width="211.76470588235293" height="190" as="geometry" />
        </mxCell>
        <mxCell id="EcIhPKk2g2EHWNbsYNkr-81" value="" style="group" vertex="1" connectable="0" parent="WIyWlLk6GJQsqaUBKTNV-1">
          <mxGeometry x="830" y="970" width="195" height="155" as="geometry" />
        </mxCell>
        <mxCell id="EcIhPKk2g2EHWNbsYNkr-65" value="" style="rhombus;whiteSpace=wrap;html=1;fillColor=#e1d5e7;strokeColor=#9673a6;" vertex="1" parent="EcIhPKk2g2EHWNbsYNkr-81">
          <mxGeometry width="195" height="155" as="geometry" />
        </mxCell>
        <mxCell id="EcIhPKk2g2EHWNbsYNkr-34" value="&lt;font style=&quot;font-size: 20px;&quot; face=&quot;Georgia&quot;&gt;&lt;b style=&quot;&quot;&gt;vison MODELS&amp;nbsp;&lt;/b&gt;&lt;/font&gt;" style="text;html=1;align=center;verticalAlign=middle;whiteSpace=wrap;rounded=0;" vertex="1" parent="EcIhPKk2g2EHWNbsYNkr-81">
          <mxGeometry x="60" y="62.5" width="60" height="30" as="geometry" />
        </mxCell>
      </root>
    </mxGraphModel>
  </diagram>
  <diagram id="fRTOT330ByUa8xl0hVzn" name="Page-2">
    <mxGraphModel dx="7170" dy="4859" grid="1" gridSize="10" guides="1" tooltips="1" connect="1" arrows="1" fold="1" page="1" pageScale="1" pageWidth="1654" pageHeight="1169" math="0" shadow="0">
      <root>
        <mxCell id="0" />
        <mxCell id="1" parent="0" />
        <mxCell id="eSmSCLz9_kg1DbreLe7c-32" value="" style="group" vertex="1" connectable="0" parent="1">
          <mxGeometry x="596" y="-611" width="3770" height="2390" as="geometry" />
        </mxCell>
        <mxCell id="HX52M6CZDCDg5GmQFa5J-5" value="" style="group;fillColor=#6a00ff;fontColor=#ffffff;strokeColor=#3700CC;" vertex="1" connectable="0" parent="eSmSCLz9_kg1DbreLe7c-32">
          <mxGeometry x="246.25" y="150" width="270" height="170" as="geometry" />
        </mxCell>
        <mxCell id="HX52M6CZDCDg5GmQFa5J-6" value="" style="shape=parallelogram;perimeter=parallelogramPerimeter;whiteSpace=wrap;html=1;fixedSize=1;fillColor=#6a00ff;fontColor=#ffffff;strokeColor=#3700CC;" vertex="1" parent="HX52M6CZDCDg5GmQFa5J-5">
          <mxGeometry width="270" height="170" as="geometry" />
        </mxCell>
        <mxCell id="HX52M6CZDCDg5GmQFa5J-7" value="&lt;font style=&quot;font-size: 48px;&quot; face=&quot;Georgia&quot;&gt;START&lt;/font&gt;" style="text;html=1;align=center;verticalAlign=middle;whiteSpace=wrap;rounded=0;fillColor=#6a00ff;fontColor=#ffffff;strokeColor=#3700CC;" vertex="1" parent="HX52M6CZDCDg5GmQFa5J-5">
          <mxGeometry x="70" y="51.00333333333333" width="108" height="68" as="geometry" />
        </mxCell>
        <mxCell id="HX52M6CZDCDg5GmQFa5J-8" value="" style="group" vertex="1" connectable="0" parent="eSmSCLz9_kg1DbreLe7c-32">
          <mxGeometry x="248.75" y="1190" width="310" height="191.5" as="geometry" />
        </mxCell>
        <mxCell id="HX52M6CZDCDg5GmQFa5J-9" value="" style="rounded=1;whiteSpace=wrap;html=1;" vertex="1" parent="HX52M6CZDCDg5GmQFa5J-8">
          <mxGeometry x="-20" width="330" height="191.5" as="geometry" />
        </mxCell>
        <mxCell id="HX52M6CZDCDg5GmQFa5J-10" value="&lt;font face=&quot;Georgia&quot; style=&quot;font-size: 36px;&quot;&gt;User provides input query through speech&lt;/font&gt;" style="text;html=1;align=center;verticalAlign=middle;whiteSpace=wrap;rounded=0;container=1;" vertex="1" parent="HX52M6CZDCDg5GmQFa5J-8">
          <mxGeometry x="11.071428571428571" y="17.40909090909091" width="287.85714285714283" height="156.68181818181822" as="geometry" />
        </mxCell>
        <mxCell id="HX52M6CZDCDg5GmQFa5J-14" value="" style="group" vertex="1" connectable="0" parent="eSmSCLz9_kg1DbreLe7c-32">
          <mxGeometry x="248.75" y="1560" width="310" height="230" as="geometry" />
        </mxCell>
        <mxCell id="HX52M6CZDCDg5GmQFa5J-15" value="" style="rounded=1;whiteSpace=wrap;html=1;" vertex="1" parent="HX52M6CZDCDg5GmQFa5J-14">
          <mxGeometry width="310" height="230" as="geometry" />
        </mxCell>
        <mxCell id="HX52M6CZDCDg5GmQFa5J-16" value="&lt;font face=&quot;Georgia&quot; style=&quot;font-size: 36px;&quot;&gt;Speech is converted to text using speech-to-text engine&lt;/font&gt;" style="text;html=1;align=center;verticalAlign=middle;whiteSpace=wrap;rounded=0;" vertex="1" parent="HX52M6CZDCDg5GmQFa5J-14">
          <mxGeometry x="9.117647058823529" y="-10" width="291.7647058823529" height="230" as="geometry" />
        </mxCell>
        <mxCell id="HX52M6CZDCDg5GmQFa5J-11" value="" style="group" vertex="1" connectable="0" parent="eSmSCLz9_kg1DbreLe7c-32">
          <mxGeometry x="190" y="780" width="380" height="200" as="geometry" />
        </mxCell>
        <mxCell id="HX52M6CZDCDg5GmQFa5J-12" value="" style="rounded=1;whiteSpace=wrap;html=1;" vertex="1" parent="HX52M6CZDCDg5GmQFa5J-11">
          <mxGeometry width="379.99999999999994" height="200" as="geometry" />
        </mxCell>
        <mxCell id="HX52M6CZDCDg5GmQFa5J-13" value="&lt;font style=&quot;font-size: 36px;&quot; face=&quot;Georgia&quot;&gt;Starts a continues video stream &amp;amp; STARTS contiues mic usage&amp;nbsp;&lt;/font&gt;" style="text;html=1;align=center;verticalAlign=middle;whiteSpace=wrap;rounded=0;" vertex="1" parent="HX52M6CZDCDg5GmQFa5J-11">
          <mxGeometry width="379.99999999999994" height="200" as="geometry" />
        </mxCell>
        <mxCell id="1T24EYo-JzdGr0BOqpk3-4" style="edgeStyle=orthogonalEdgeStyle;rounded=0;orthogonalLoop=1;jettySize=auto;html=1;exitX=1;exitY=0.5;exitDx=0;exitDy=0;exitPerimeter=0;strokeWidth=5;endSize=20;" edge="1" parent="eSmSCLz9_kg1DbreLe7c-32" source="ijIrtooHCrFyEg0t_PTl-3">
          <mxGeometry relative="1" as="geometry">
            <mxPoint x="2000" y="1078" as="targetPoint" />
            <Array as="points">
              <mxPoint x="1990" y="1078" />
            </Array>
          </mxGeometry>
        </mxCell>
        <mxCell id="1T24EYo-JzdGr0BOqpk3-7" style="edgeStyle=orthogonalEdgeStyle;rounded=0;orthogonalLoop=1;jettySize=auto;html=1;exitX=0.5;exitY=0;exitDx=0;exitDy=0;exitPerimeter=0;entryX=0.5;entryY=0;entryDx=0;entryDy=0;strokeWidth=5;endArrow=block;endFill=1;endSize=20;" edge="1" parent="eSmSCLz9_kg1DbreLe7c-32" source="ijIrtooHCrFyEg0t_PTl-3" target="KhhtSjIBIe3SFWTOTiL8-8">
          <mxGeometry relative="1" as="geometry">
            <Array as="points">
              <mxPoint x="1475" y="150" />
              <mxPoint x="2798" y="150" />
            </Array>
          </mxGeometry>
        </mxCell>
        <mxCell id="eSmSCLz9_kg1DbreLe7c-21" style="edgeStyle=orthogonalEdgeStyle;rounded=0;orthogonalLoop=1;jettySize=auto;html=1;exitX=0.145;exitY=1;exitDx=0;exitDy=-4.35;exitPerimeter=0;entryX=0.5;entryY=0;entryDx=0;entryDy=0;fillColor=#dae8fc;strokeColor=#6c8ebf;gradientColor=#7ea6e0;shape=flexArrow;" edge="1" parent="eSmSCLz9_kg1DbreLe7c-32" source="ijIrtooHCrFyEg0t_PTl-3" target="eSmSCLz9_kg1DbreLe7c-5">
          <mxGeometry relative="1" as="geometry" />
        </mxCell>
        <mxCell id="eSmSCLz9_kg1DbreLe7c-22" style="edgeStyle=orthogonalEdgeStyle;rounded=0;orthogonalLoop=1;jettySize=auto;html=1;exitX=0.5;exitY=1;exitDx=0;exitDy=0;exitPerimeter=0;entryX=0;entryY=0;entryDx=0;entryDy=0;endArrow=block;endFill=0;strokeWidth=6;endSize=20;" edge="1" parent="eSmSCLz9_kg1DbreLe7c-32" source="ijIrtooHCrFyEg0t_PTl-3" target="KhhtSjIBIe3SFWTOTiL8-7">
          <mxGeometry relative="1" as="geometry">
            <Array as="points">
              <mxPoint x="1400" y="1640" />
            </Array>
          </mxGeometry>
        </mxCell>
        <mxCell id="ijIrtooHCrFyEg0t_PTl-3" value="&lt;font face=&quot;Georgia&quot; style=&quot;font-size: 48px;&quot;&gt;NODE&lt;/font&gt;" style="shape=cylinder3;whiteSpace=wrap;html=1;boundedLbl=1;backgroundOutline=1;size=15;fillColor=#60a917;fontColor=#ffffff;strokeColor=#2D7600;" vertex="1" parent="eSmSCLz9_kg1DbreLe7c-32">
          <mxGeometry x="1220" y="896.5" width="360" height="363.5" as="geometry" />
        </mxCell>
        <mxCell id="KhhtSjIBIe3SFWTOTiL8-1" value="&lt;div&gt;&lt;font style=&quot;&quot;&gt;&lt;b style=&quot;&quot;&gt;&lt;font style=&quot;font-size: 48px;&quot;&gt;Lama3 &lt;/font&gt;&lt;/b&gt;&lt;br&gt;&lt;span style=&quot;font-size: 24px;&quot;&gt;is used for query understanding&lt;/span&gt;&lt;/font&gt;&lt;/div&gt;&lt;div&gt;&lt;br&gt;&lt;/div&gt;" style="rhombus;whiteSpace=wrap;html=1;fillColor=#e1d5e7;strokeColor=#9673a6;" vertex="1" parent="eSmSCLz9_kg1DbreLe7c-32">
          <mxGeometry x="720" y="710" width="355" height="380" as="geometry" />
        </mxCell>
        <mxCell id="KhhtSjIBIe3SFWTOTiL8-7" value="&lt;div&gt;&lt;b&gt;&lt;font style=&quot;font-size: 48px;&quot;&gt;Text MODEL&amp;nbsp;&lt;/font&gt;&lt;/b&gt;&lt;/div&gt;" style="rhombus;whiteSpace=wrap;html=1;fillColor=#e1d5e7;strokeColor=#9673a6;" vertex="1" parent="eSmSCLz9_kg1DbreLe7c-32">
          <mxGeometry x="2090" y="1640" width="440" height="440" as="geometry" />
        </mxCell>
        <mxCell id="aEQ_4oLKuEcciQHrWI2Q-1" style="edgeStyle=orthogonalEdgeStyle;rounded=0;orthogonalLoop=1;jettySize=auto;html=1;exitX=1;exitY=0.5;exitDx=0;exitDy=0;entryX=0.25;entryY=0;entryDx=0;entryDy=0;strokeWidth=5;endSize=20;" edge="1" parent="eSmSCLz9_kg1DbreLe7c-32" source="KhhtSjIBIe3SFWTOTiL8-8" target="xfEWh4Sbt7dhwtd7HT5J-16">
          <mxGeometry relative="1" as="geometry">
            <Array as="points">
              <mxPoint x="2755" y="1960" />
              <mxPoint x="3272" y="1960" />
            </Array>
          </mxGeometry>
        </mxCell>
        <mxCell id="KhhtSjIBIe3SFWTOTiL8-8" value="&lt;div&gt;&lt;b style=&quot;font-family: Georgia;&quot;&gt;&lt;font style=&quot;font-size: 36px;&quot;&gt;Vison MODELS&amp;nbsp;&lt;/font&gt;&lt;/b&gt;&lt;/div&gt;" style="rhombus;whiteSpace=wrap;html=1;fillColor=#e1d5e7;strokeColor=#9673a6;" vertex="1" parent="eSmSCLz9_kg1DbreLe7c-32">
          <mxGeometry x="2460" y="550" width="295" height="310" as="geometry" />
        </mxCell>
        <mxCell id="xfEWh4Sbt7dhwtd7HT5J-8" value="" style="group" vertex="1" connectable="0" parent="eSmSCLz9_kg1DbreLe7c-32">
          <mxGeometry x="3140" y="550" width="310" height="230" as="geometry" />
        </mxCell>
        <mxCell id="xfEWh4Sbt7dhwtd7HT5J-9" value="" style="rounded=1;whiteSpace=wrap;html=1;" vertex="1" parent="xfEWh4Sbt7dhwtd7HT5J-8">
          <mxGeometry width="310" height="230" as="geometry" />
        </mxCell>
        <mxCell id="xfEWh4Sbt7dhwtd7HT5J-10" value="&lt;span style=&quot;font-family: Georgia;&quot;&gt;&lt;font style=&quot;font-size: 36px;&quot;&gt;Application resets and starts from the beginning&lt;/font&gt;&lt;/span&gt;" style="text;html=1;align=center;verticalAlign=middle;whiteSpace=wrap;rounded=0;" vertex="1" parent="xfEWh4Sbt7dhwtd7HT5J-8">
          <mxGeometry x="9.117647058823529" y="-10" width="291.7647058823529" height="230" as="geometry" />
        </mxCell>
        <mxCell id="xfEWh4Sbt7dhwtd7HT5J-11" value="" style="group" vertex="1" connectable="0" parent="eSmSCLz9_kg1DbreLe7c-32">
          <mxGeometry x="3150" y="980" width="310" height="230" as="geometry" />
        </mxCell>
        <mxCell id="xfEWh4Sbt7dhwtd7HT5J-12" value="" style="rounded=1;whiteSpace=wrap;html=1;" vertex="1" parent="xfEWh4Sbt7dhwtd7HT5J-11">
          <mxGeometry width="310" height="230" as="geometry" />
        </mxCell>
        <mxCell id="xfEWh4Sbt7dhwtd7HT5J-13" value="&lt;span style=&quot;font-family: Georgia;&quot;&gt;&lt;font style=&quot;font-size: 36px;&quot;&gt;After the session ends or refreshes, all stored inputs are deleted from the node&lt;/font&gt;&lt;/span&gt;" style="text;html=1;align=center;verticalAlign=middle;whiteSpace=wrap;rounded=0;" vertex="1" parent="xfEWh4Sbt7dhwtd7HT5J-11">
          <mxGeometry x="9.117647058823529" y="-10" width="291.7647058823529" height="230" as="geometry" />
        </mxCell>
        <mxCell id="xfEWh4Sbt7dhwtd7HT5J-14" value="" style="group" vertex="1" connectable="0" parent="eSmSCLz9_kg1DbreLe7c-32">
          <mxGeometry x="3190" y="2070" width="310" height="230" as="geometry" />
        </mxCell>
        <mxCell id="xfEWh4Sbt7dhwtd7HT5J-15" value="" style="rounded=1;whiteSpace=wrap;html=1;" vertex="1" parent="xfEWh4Sbt7dhwtd7HT5J-14">
          <mxGeometry width="310" height="230" as="geometry" />
        </mxCell>
        <mxCell id="xfEWh4Sbt7dhwtd7HT5J-16" value="&lt;span style=&quot;font-family: Georgia;&quot;&gt;&lt;font style=&quot;font-size: 36px;&quot;&gt;Text output is converted to speech using text-to-speech engine&lt;/font&gt;&lt;/span&gt;" style="text;html=1;align=center;verticalAlign=middle;whiteSpace=wrap;rounded=0;" vertex="1" parent="xfEWh4Sbt7dhwtd7HT5J-14">
          <mxGeometry x="9.117647058823536" width="291.7647058823529" height="230" as="geometry" />
        </mxCell>
        <mxCell id="xfEWh4Sbt7dhwtd7HT5J-17" value="" style="group;fillColor=#6a00ff;fontColor=#ffffff;strokeColor=#3700CC;" vertex="1" connectable="0" parent="eSmSCLz9_kg1DbreLe7c-32">
          <mxGeometry x="3160" y="150" width="270" height="170" as="geometry" />
        </mxCell>
        <mxCell id="xfEWh4Sbt7dhwtd7HT5J-18" value="" style="shape=parallelogram;perimeter=parallelogramPerimeter;whiteSpace=wrap;html=1;fixedSize=1;fillColor=#6a00ff;fontColor=#ffffff;strokeColor=#3700CC;" vertex="1" parent="xfEWh4Sbt7dhwtd7HT5J-17">
          <mxGeometry width="270" height="170" as="geometry" />
        </mxCell>
        <mxCell id="xfEWh4Sbt7dhwtd7HT5J-19" value="&lt;font style=&quot;font-size: 48px;&quot; face=&quot;Georgia&quot;&gt;END&lt;/font&gt;" style="text;html=1;align=center;verticalAlign=middle;whiteSpace=wrap;rounded=0;fillColor=#6a00ff;fontColor=#ffffff;strokeColor=#3700CC;" vertex="1" parent="xfEWh4Sbt7dhwtd7HT5J-17">
          <mxGeometry x="70" y="51.00333333333333" width="108" height="68" as="geometry" />
        </mxCell>
        <mxCell id="kvzjnoauGEHV0QcJ_ql6-2" style="edgeStyle=orthogonalEdgeStyle;rounded=0;orthogonalLoop=1;jettySize=auto;html=1;exitX=0.625;exitY=1;exitDx=0;exitDy=0;" edge="1" parent="eSmSCLz9_kg1DbreLe7c-32" source="5pXycHHtwzYZztuV3Xv7-2">
          <mxGeometry relative="1" as="geometry">
            <mxPoint x="430" y="691" as="targetPoint" />
          </mxGeometry>
        </mxCell>
        <mxCell id="5pXycHHtwzYZztuV3Xv7-2" value="&lt;font face=&quot;Georgia&quot; style=&quot;font-size: 36px;&quot;&gt;WAKE WORD&lt;br&gt;(OPTIONAL)&lt;/font&gt;" style="shape=hexagon;perimeter=hexagonPerimeter2;whiteSpace=wrap;html=1;fixedSize=1;fillColor=#fad9d5;strokeColor=#ae4132;" vertex="1" parent="eSmSCLz9_kg1DbreLe7c-32">
          <mxGeometry x="203.75" y="490" width="355" height="200" as="geometry" />
        </mxCell>
        <mxCell id="kvzjnoauGEHV0QcJ_ql6-1" style="edgeStyle=orthogonalEdgeStyle;rounded=0;orthogonalLoop=1;jettySize=auto;html=1;exitX=0.5;exitY=1;exitDx=0;exitDy=0;strokeWidth=5;endSize=20;" edge="1" parent="eSmSCLz9_kg1DbreLe7c-32" source="HX52M6CZDCDg5GmQFa5J-6" target="5pXycHHtwzYZztuV3Xv7-2">
          <mxGeometry relative="1" as="geometry" />
        </mxCell>
        <mxCell id="jQoCGR4VN1WWeZkf0c2d-3" value="" style="endArrow=classic;html=1;rounded=0;exitX=0.5;exitY=0;exitDx=0;exitDy=0;entryX=0.5;entryY=1;entryDx=0;entryDy=0;strokeWidth=5;endSize=20;" edge="1" parent="eSmSCLz9_kg1DbreLe7c-32" target="xfEWh4Sbt7dhwtd7HT5J-9">
          <mxGeometry width="50" height="50" relative="1" as="geometry">
            <mxPoint x="3298.17" y="980" as="sourcePoint" />
            <mxPoint x="3291.8207936507943" y="780" as="targetPoint" />
          </mxGeometry>
        </mxCell>
        <mxCell id="jQoCGR4VN1WWeZkf0c2d-4" style="edgeStyle=orthogonalEdgeStyle;rounded=0;orthogonalLoop=1;jettySize=auto;html=1;exitX=0.5;exitY=0;exitDx=0;exitDy=0;entryX=0.5;entryY=1;entryDx=0;entryDy=0;strokeWidth=5;endSize=20;" edge="1" parent="eSmSCLz9_kg1DbreLe7c-32" source="xfEWh4Sbt7dhwtd7HT5J-10" target="xfEWh4Sbt7dhwtd7HT5J-18">
          <mxGeometry relative="1" as="geometry" />
        </mxCell>
        <mxCell id="jQoCGR4VN1WWeZkf0c2d-5" style="edgeStyle=orthogonalEdgeStyle;rounded=0;orthogonalLoop=1;jettySize=auto;html=1;exitX=0.5;exitY=1;exitDx=0;exitDy=0;entryX=0.5;entryY=0;entryDx=0;entryDy=0;strokeWidth=5;endSize=20;" edge="1" parent="eSmSCLz9_kg1DbreLe7c-32" source="5pXycHHtwzYZztuV3Xv7-2" target="HX52M6CZDCDg5GmQFa5J-13">
          <mxGeometry relative="1" as="geometry">
            <Array as="points">
              <mxPoint x="381" y="750" />
              <mxPoint x="380" y="750" />
            </Array>
          </mxGeometry>
        </mxCell>
        <mxCell id="jQoCGR4VN1WWeZkf0c2d-8" style="edgeStyle=orthogonalEdgeStyle;rounded=0;orthogonalLoop=1;jettySize=auto;html=1;entryX=0.5;entryY=0;entryDx=0;entryDy=0;strokeWidth=5;endSize=20;" edge="1" parent="eSmSCLz9_kg1DbreLe7c-32" target="HX52M6CZDCDg5GmQFa5J-16">
          <mxGeometry relative="1" as="geometry">
            <mxPoint x="404" y="1390" as="sourcePoint" />
          </mxGeometry>
        </mxCell>
        <mxCell id="jQoCGR4VN1WWeZkf0c2d-10" value="" style="group;strokeColor=#FF6242;" vertex="1" connectable="0" parent="eSmSCLz9_kg1DbreLe7c-32">
          <mxGeometry x="2000" y="160" width="420" height="1400" as="geometry" />
        </mxCell>
        <mxCell id="qMdY5khr7dKZycc0hmdV-2" value="&lt;font style=&quot;font-size: 36px;&quot;&gt;application reads the text that is copied&amp;nbsp;&lt;/font&gt;" style="rounded=1;whiteSpace=wrap;html=1;fillColor=#dae8fc;strokeColor=#6c8ebf;" vertex="1" parent="jQoCGR4VN1WWeZkf0c2d-10">
          <mxGeometry x="60" y="100" width="290" height="200" as="geometry" />
        </mxCell>
        <mxCell id="qMdY5khr7dKZycc0hmdV-7" value="&lt;font face=&quot;Georgia&quot; style=&quot;font-size: 48px;&quot;&gt;Screenshot&lt;/font&gt;" style="rounded=1;whiteSpace=wrap;html=1;fillColor=#dae8fc;strokeColor=#6c8ebf;" vertex="1" parent="jQoCGR4VN1WWeZkf0c2d-10">
          <mxGeometry x="70" y="1080" width="290" height="200" as="geometry" />
        </mxCell>
        <mxCell id="jQoCGR4VN1WWeZkf0c2d-9" value="&lt;font style=&quot;font-size: 36px;&quot;&gt;function&lt;/font&gt;" style="swimlane;whiteSpace=wrap;html=1;startSize=70;fillColor=#ffcd28;gradientColor=#ffa500;strokeColor=#d79b00;" vertex="1" parent="jQoCGR4VN1WWeZkf0c2d-10">
          <mxGeometry y="10" width="420" height="1400" as="geometry" />
        </mxCell>
        <mxCell id="eSmSCLz9_kg1DbreLe7c-4" value="&lt;font face=&quot;Georgia&quot; style=&quot;font-size: 48px;&quot;&gt;OCR&lt;/font&gt;" style="rounded=1;whiteSpace=wrap;html=1;fillColor=#dae8fc;strokeColor=#6c8ebf;" vertex="1" parent="jQoCGR4VN1WWeZkf0c2d-9">
          <mxGeometry x="70" y="760" width="290" height="200" as="geometry" />
        </mxCell>
        <mxCell id="qMdY5khr7dKZycc0hmdV-6" value="&lt;span style=&quot;font-family: Georgia;&quot;&gt;&lt;font style=&quot;font-size: 36px;&quot;&gt;Application captures an image after the query is recorded&lt;/font&gt;&lt;/span&gt;" style="rounded=1;whiteSpace=wrap;html=1;fillColor=#dae8fc;strokeColor=#6c8ebf;" vertex="1" parent="jQoCGR4VN1WWeZkf0c2d-9">
          <mxGeometry x="65" y="440" width="290" height="200" as="geometry" />
        </mxCell>
        <mxCell id="1T24EYo-JzdGr0BOqpk3-1" style="edgeStyle=orthogonalEdgeStyle;rounded=0;orthogonalLoop=1;jettySize=auto;html=1;exitX=1;exitY=0.5;exitDx=0;exitDy=0;entryX=0;entryY=0.5;entryDx=0;entryDy=0;strokeWidth=5;endSize=20;" edge="1" parent="eSmSCLz9_kg1DbreLe7c-32" source="HX52M6CZDCDg5GmQFa5J-16" target="KhhtSjIBIe3SFWTOTiL8-1">
          <mxGeometry relative="1" as="geometry" />
        </mxCell>
        <mxCell id="1T24EYo-JzdGr0BOqpk3-3" style="edgeStyle=orthogonalEdgeStyle;rounded=0;orthogonalLoop=1;jettySize=auto;html=1;exitX=0.5;exitY=0;exitDx=0;exitDy=0;entryX=0;entryY=0.5;entryDx=0;entryDy=0;entryPerimeter=0;strokeWidth=5;endSize=20;" edge="1" parent="eSmSCLz9_kg1DbreLe7c-32" source="KhhtSjIBIe3SFWTOTiL8-1" target="ijIrtooHCrFyEg0t_PTl-3">
          <mxGeometry relative="1" as="geometry">
            <Array as="points">
              <mxPoint x="898" y="690" />
              <mxPoint x="1120" y="690" />
              <mxPoint x="1120" y="1078" />
            </Array>
          </mxGeometry>
        </mxCell>
        <mxCell id="1T24EYo-JzdGr0BOqpk3-18" value="" style="endArrow=classic;html=1;rounded=0;strokeWidth=5;endSize=20;" edge="1" parent="eSmSCLz9_kg1DbreLe7c-32">
          <mxGeometry relative="1" as="geometry">
            <mxPoint x="400" y="1480" as="sourcePoint" />
            <mxPoint x="400" y="1040" as="targetPoint" />
            <Array as="points">
              <mxPoint y="1480" />
              <mxPoint y="1040" />
            </Array>
          </mxGeometry>
        </mxCell>
        <mxCell id="1T24EYo-JzdGr0BOqpk3-19" value="&lt;span style=&quot;font-family: Georgia; font-size: 24px; text-wrap-mode: wrap; background-color: rgb(251, 251, 251);&quot;&gt;Fallback responce&amp;nbsp;&lt;/span&gt;&lt;div&gt;&lt;span style=&quot;font-family: Georgia; font-size: 24px; text-wrap-mode: wrap; background-color: rgb(251, 251, 251);&quot;&gt;if misinterprets a query&lt;/span&gt;&lt;/div&gt;" style="edgeLabel;resizable=0;html=1;;align=center;verticalAlign=middle;" connectable="0" vertex="1" parent="1T24EYo-JzdGr0BOqpk3-18">
          <mxGeometry relative="1" as="geometry" />
        </mxCell>
        <mxCell id="1T24EYo-JzdGr0BOqpk3-25" value="" style="group" vertex="1" connectable="0" parent="eSmSCLz9_kg1DbreLe7c-32">
          <mxGeometry x="3180" y="1610" width="310" height="230" as="geometry" />
        </mxCell>
        <mxCell id="1T24EYo-JzdGr0BOqpk3-26" value="" style="rounded=1;whiteSpace=wrap;html=1;" vertex="1" parent="1T24EYo-JzdGr0BOqpk3-25">
          <mxGeometry width="310" height="230" as="geometry" />
        </mxCell>
        <mxCell id="1T24EYo-JzdGr0BOqpk3-27" value="&lt;span style=&quot;font-family: Georgia;&quot;&gt;&lt;font style=&quot;font-size: 36px;&quot;&gt;User ask another query&lt;/font&gt;&lt;/span&gt;" style="text;html=1;align=center;verticalAlign=middle;whiteSpace=wrap;rounded=0;" vertex="1" parent="1T24EYo-JzdGr0BOqpk3-25">
          <mxGeometry x="9.117647058823529" y="-10" width="291.7647058823529" height="230" as="geometry" />
        </mxCell>
        <mxCell id="eSmSCLz9_kg1DbreLe7c-1" value="" style="endArrow=classic;html=1;rounded=0;exitX=0.445;exitY=0.021;exitDx=0;exitDy=0;exitPerimeter=0;strokeWidth=5;endSize=20;" edge="1" parent="eSmSCLz9_kg1DbreLe7c-32" source="1T24EYo-JzdGr0BOqpk3-27">
          <mxGeometry relative="1" as="geometry">
            <mxPoint x="3305" y="1620" as="sourcePoint" />
            <mxPoint x="3319" y="1210" as="targetPoint" />
          </mxGeometry>
        </mxCell>
        <mxCell id="eSmSCLz9_kg1DbreLe7c-2" value="&lt;font style=&quot;font-size: 48px;&quot; face=&quot;Georgia&quot;&gt;User ask multiple Query&#39;s&lt;/font&gt;" style="edgeLabel;resizable=0;html=1;;align=center;verticalAlign=middle;" connectable="0" vertex="1" parent="eSmSCLz9_kg1DbreLe7c-1">
          <mxGeometry relative="1" as="geometry" />
        </mxCell>
        <mxCell id="eSmSCLz9_kg1DbreLe7c-23" style="edgeStyle=orthogonalEdgeStyle;rounded=0;orthogonalLoop=1;jettySize=auto;html=1;exitX=0.75;exitY=0;exitDx=0;exitDy=0;entryX=0;entryY=0.5;entryDx=0;entryDy=0;fillColor=#dae8fc;strokeColor=#6c8ebf;shape=flexArrow;gradientColor=#7ea6e0;endSize=20;" edge="1" parent="eSmSCLz9_kg1DbreLe7c-32" source="eSmSCLz9_kg1DbreLe7c-5" target="KhhtSjIBIe3SFWTOTiL8-7">
          <mxGeometry relative="1" as="geometry" />
        </mxCell>
        <mxCell id="eSmSCLz9_kg1DbreLe7c-5" value="&lt;font style=&quot;font-size: 36px;&quot;&gt;RAG SYSTEM&amp;nbsp;&lt;/font&gt;" style="swimlane;horizontal=0;whiteSpace=wrap;html=1;startSize=90;fillColor=#ffcd28;gradientColor=#ffa500;strokeColor=#d79b00;strokeWidth=3;" vertex="1" parent="eSmSCLz9_kg1DbreLe7c-32">
          <mxGeometry x="203.75" y="1940" width="1686.25" height="300" as="geometry" />
        </mxCell>
        <mxCell id="eSmSCLz9_kg1DbreLe7c-14" value="" style="group" vertex="1" connectable="0" parent="eSmSCLz9_kg1DbreLe7c-5">
          <mxGeometry x="120" y="88.75" width="1290" height="163.1300000000001" as="geometry" />
        </mxCell>
        <mxCell id="eSmSCLz9_kg1DbreLe7c-6" value="&lt;div style=&quot;line-height: 19px; white-space: pre;&quot;&gt;&lt;font style=&quot;font-size: 36px;&quot; face=&quot;Georgia&quot;&gt;&lt;span style=&quot;background-color: rgb(255, 255, 255);&quot;&gt;Knowledge &lt;/span&gt;&lt;/font&gt;&lt;/div&gt;&lt;div style=&quot;line-height: 19px; white-space: pre;&quot;&gt;&lt;font style=&quot;font-size: 36px;&quot; face=&quot;Georgia&quot;&gt;&lt;span style=&quot;background-color: rgb(255, 255, 255);&quot;&gt;&lt;br&gt;&lt;/span&gt;&lt;/font&gt;&lt;/div&gt;&lt;div style=&quot;line-height: 19px; white-space: pre;&quot;&gt;&lt;font style=&quot;font-size: 36px;&quot; face=&quot;Georgia&quot;&gt;&lt;span style=&quot;background-color: rgb(255, 255, 255);&quot;&gt;Base&lt;/span&gt;&lt;/font&gt;&lt;/div&gt;" style="shape=cube;whiteSpace=wrap;html=1;boundedLbl=1;backgroundOutline=1;darkOpacity=0.05;darkOpacity2=0.1;" vertex="1" parent="eSmSCLz9_kg1DbreLe7c-14">
          <mxGeometry y="1.25" width="220" height="140" as="geometry" />
        </mxCell>
        <mxCell id="eSmSCLz9_kg1DbreLe7c-8" value="&lt;div style=&quot;line-height: 19px; white-space: pre;&quot;&gt;&lt;div style=&quot;line-height: 19px;&quot;&gt;&lt;span style=&quot;background-color: rgb(255, 255, 255);&quot;&gt;&lt;font face=&quot;Georgia&quot; style=&quot;font-size: 30px;&quot;&gt;Context&lt;/font&gt;&lt;/span&gt;&lt;/div&gt;&lt;div style=&quot;line-height: 19px;&quot;&gt;&lt;span style=&quot;background-color: rgb(255, 255, 255);&quot;&gt;&lt;font face=&quot;Georgia&quot; style=&quot;font-size: 30px;&quot;&gt;Augmentation&lt;/font&gt;&lt;/span&gt;&lt;/div&gt;&lt;/div&gt;" style="shape=cube;whiteSpace=wrap;html=1;boundedLbl=1;backgroundOutline=1;darkOpacity=0.05;darkOpacity2=0.1;" vertex="1" parent="eSmSCLz9_kg1DbreLe7c-14">
          <mxGeometry x="1236.25" y="1.25" width="270" height="155" as="geometry" />
        </mxCell>
        <mxCell id="eSmSCLz9_kg1DbreLe7c-7" value="&lt;div style=&quot;line-height: 19px; white-space: pre;&quot;&gt;&lt;div style=&quot;line-height: 19px;&quot;&gt;&lt;div style=&quot;&quot;&gt;&lt;font face=&quot;Georgia&quot; style=&quot;font-size: 30px;&quot;&gt;&lt;span style=&quot;background-color: rgb(255, 255, 255);&quot;&gt;Embedding&lt;/span&gt;&lt;/font&gt;&lt;/div&gt;&lt;div style=&quot;&quot;&gt;&lt;font face=&quot;Georgia&quot; style=&quot;font-size: 30px;&quot;&gt;&lt;span style=&quot;background-color: rgb(255, 255, 255);&quot;&gt;&lt;br&gt;&lt;/span&gt;&lt;/font&gt;&lt;/div&gt;&lt;div style=&quot;&quot;&gt;&lt;font face=&quot;Georgia&quot; style=&quot;font-size: 30px;&quot;&gt;&lt;span style=&quot;background-color: rgb(255, 255, 255);&quot;&gt; &lt;/span&gt;&lt;span style=&quot;background-color: rgb(255, 255, 255);&quot;&gt;Generation&lt;/span&gt;&lt;/font&gt;&lt;/div&gt;&lt;/div&gt;&lt;/div&gt;" style="shape=cube;whiteSpace=wrap;html=1;boundedLbl=1;backgroundOutline=1;darkOpacity=0.05;darkOpacity2=0.1;" vertex="1" parent="eSmSCLz9_kg1DbreLe7c-14">
          <mxGeometry x="286.25" width="250" height="152.5" as="geometry" />
        </mxCell>
        <mxCell id="eSmSCLz9_kg1DbreLe7c-9" value="&lt;span style=&quot;background-color: rgb(255, 255, 255);&quot;&gt;&lt;font style=&quot;font-size: 36px;&quot; face=&quot;Georgia&quot;&gt;RETRIVAL ENGINE&lt;/font&gt;&lt;/span&gt;" style="shape=cube;whiteSpace=wrap;html=1;boundedLbl=1;backgroundOutline=1;darkOpacity=0.05;darkOpacity2=0.1;" vertex="1" parent="eSmSCLz9_kg1DbreLe7c-14">
          <mxGeometry x="886.25" y="2.5" width="270" height="150" as="geometry" />
        </mxCell>
        <mxCell id="eSmSCLz9_kg1DbreLe7c-11" value="" style="endArrow=classic;html=1;rounded=0;exitX=0;exitY=0;exitDx=220;exitDy=80;exitPerimeter=0;entryX=0;entryY=0.537;entryDx=0;entryDy=0;entryPerimeter=0;" edge="1" parent="eSmSCLz9_kg1DbreLe7c-14" source="eSmSCLz9_kg1DbreLe7c-6" target="eSmSCLz9_kg1DbreLe7c-7">
          <mxGeometry width="50" height="50" relative="1" as="geometry">
            <mxPoint x="240" y="131.25" as="sourcePoint" />
            <mxPoint x="320" y="81.25" as="targetPoint" />
          </mxGeometry>
        </mxCell>
        <mxCell id="eSmSCLz9_kg1DbreLe7c-12" value="" style="endArrow=classic;html=1;rounded=0;exitX=1.001;exitY=0.595;exitDx=0;exitDy=0;exitPerimeter=0;" edge="1" parent="eSmSCLz9_kg1DbreLe7c-14" source="eSmSCLz9_kg1DbreLe7c-7">
          <mxGeometry width="50" height="50" relative="1" as="geometry">
            <mxPoint x="580" y="91.25" as="sourcePoint" />
            <mxPoint x="636.25" y="91.25" as="targetPoint" />
          </mxGeometry>
        </mxCell>
        <mxCell id="eSmSCLz9_kg1DbreLe7c-13" value="" style="endArrow=classic;html=1;rounded=0;exitX=0;exitY=0;exitDx=220;exitDy=80;exitPerimeter=0;" edge="1" parent="eSmSCLz9_kg1DbreLe7c-14">
          <mxGeometry width="50" height="50" relative="1" as="geometry">
            <mxPoint x="1156.25" y="92.5" as="sourcePoint" />
            <mxPoint x="1236.25" y="93.5" as="targetPoint" />
          </mxGeometry>
        </mxCell>
        <mxCell id="eSmSCLz9_kg1DbreLe7c-17" value="&lt;font face=&quot;Georgia&quot; style=&quot;font-size: 24px;&quot;&gt;Vector Database&lt;/font&gt;" style="shape=cylinder3;whiteSpace=wrap;html=1;boundedLbl=1;backgroundOutline=1;size=15;" vertex="1" parent="eSmSCLz9_kg1DbreLe7c-14">
          <mxGeometry x="636.25" y="6.25" width="168.75" height="150.62" as="geometry" />
        </mxCell>
        <mxCell id="eSmSCLz9_kg1DbreLe7c-19" value="" style="endArrow=classic;html=1;rounded=0;entryX=-0.01;entryY=0.594;entryDx=0;entryDy=0;entryPerimeter=0;exitX=0.997;exitY=0.564;exitDx=0;exitDy=0;exitPerimeter=0;" edge="1" parent="eSmSCLz9_kg1DbreLe7c-14" source="eSmSCLz9_kg1DbreLe7c-17" target="eSmSCLz9_kg1DbreLe7c-9">
          <mxGeometry width="50" height="50" relative="1" as="geometry">
            <mxPoint x="806.25" y="91.25" as="sourcePoint" />
            <mxPoint x="856.25" y="41.25" as="targetPoint" />
          </mxGeometry>
        </mxCell>
        <mxCell id="nSOXCaNEKPIkPWwoMQ0L-1" style="edgeStyle=orthogonalEdgeStyle;rounded=0;orthogonalLoop=1;jettySize=auto;html=1;exitX=0.5;exitY=1;exitDx=0;exitDy=0;strokeWidth=5;endSize=20;" edge="1" parent="eSmSCLz9_kg1DbreLe7c-32" source="KhhtSjIBIe3SFWTOTiL8-7">
          <mxGeometry relative="1" as="geometry">
            <mxPoint x="3190" y="2185" as="targetPoint" />
            <Array as="points">
              <mxPoint x="2310" y="2180" />
              <mxPoint x="2520" y="2180" />
              <mxPoint x="2520" y="2185" />
            </Array>
          </mxGeometry>
        </mxCell>
        <mxCell id="eSmSCLz9_kg1DbreLe7c-16" style="edgeStyle=orthogonalEdgeStyle;rounded=0;orthogonalLoop=1;jettySize=auto;html=1;exitX=1;exitY=0.5;exitDx=0;exitDy=0;entryX=0;entryY=0.5;entryDx=0;entryDy=0;fillColor=#dae8fc;strokeColor=#6c8ebf;shape=flexArrow;gradientColor=#7ea6e0;endSize=20;" edge="1" parent="eSmSCLz9_kg1DbreLe7c-32" source="1T24EYo-JzdGr0BOqpk3-27" target="HX52M6CZDCDg5GmQFa5J-16">
          <mxGeometry relative="1" as="geometry">
            <Array as="points">
              <mxPoint x="3740" y="1715" />
              <mxPoint x="3740" y="2390" />
              <mxPoint y="2390" />
              <mxPoint y="1665" />
            </Array>
          </mxGeometry>
        </mxCell>
        <mxCell id="eSmSCLz9_kg1DbreLe7c-20" style="edgeStyle=orthogonalEdgeStyle;rounded=0;orthogonalLoop=1;jettySize=auto;html=1;exitX=0.5;exitY=1;exitDx=0;exitDy=0;entryX=0;entryY=0;entryDx=0;entryDy=265.125;entryPerimeter=0;fillColor=#dae8fc;strokeColor=#6c8ebf;shape=flexArrow;gradientColor=#7ea6e0;endSize=20;" edge="1" parent="eSmSCLz9_kg1DbreLe7c-32" source="KhhtSjIBIe3SFWTOTiL8-1" target="ijIrtooHCrFyEg0t_PTl-3">
          <mxGeometry relative="1" as="geometry" />
        </mxCell>
        <mxCell id="eSmSCLz9_kg1DbreLe7c-25" value="" style="endArrow=classic;html=1;rounded=0;entryX=0.522;entryY=-0.002;entryDx=0;entryDy=0;exitX=0.547;exitY=1.004;exitDx=0;exitDy=0;exitPerimeter=0;entryPerimeter=0;strokeWidth=5;endSize=20;" edge="1" parent="eSmSCLz9_kg1DbreLe7c-32" source="HX52M6CZDCDg5GmQFa5J-13" target="HX52M6CZDCDg5GmQFa5J-9">
          <mxGeometry relative="1" as="geometry">
            <mxPoint x="390" y="1110" as="sourcePoint" />
            <mxPoint x="490" y="1110" as="targetPoint" />
            <Array as="points">
              <mxPoint x="400" y="1180" />
            </Array>
          </mxGeometry>
        </mxCell>
        <mxCell id="eSmSCLz9_kg1DbreLe7c-26" value="&lt;blockquote style=&quot;margin: 0 0 0 40px; border: none; padding: 0px;&quot;&gt;&lt;font face=&quot;Georgia&quot; style=&quot;font-size: 24px;&quot;&gt;Noise Suppression Filters&lt;/font&gt;&lt;/blockquote&gt;" style="edgeLabel;resizable=0;html=1;;align=center;verticalAlign=middle;" connectable="0" vertex="1" parent="eSmSCLz9_kg1DbreLe7c-25">
          <mxGeometry relative="1" as="geometry">
            <mxPoint x="3" as="offset" />
          </mxGeometry>
        </mxCell>
        <mxCell id="eSmSCLz9_kg1DbreLe7c-27" value="" style="endArrow=classic;html=1;rounded=0;strokeWidth=6;endSize=20;" edge="1" parent="eSmSCLz9_kg1DbreLe7c-32">
          <mxGeometry width="50" height="50" relative="1" as="geometry">
            <mxPoint x="3600" y="1410" as="sourcePoint" />
            <mxPoint x="390" y="1010" as="targetPoint" />
            <Array as="points">
              <mxPoint x="3770" y="1410" />
              <mxPoint x="3760" />
              <mxPoint x="2140" />
              <mxPoint x="70" />
              <mxPoint x="80" y="1010" />
            </Array>
          </mxGeometry>
        </mxCell>
        <mxCell id="1T24EYo-JzdGr0BOqpk3-9" style="edgeStyle=orthogonalEdgeStyle;rounded=0;orthogonalLoop=1;jettySize=auto;html=1;exitX=0;exitY=0.25;exitDx=0;exitDy=0;entryX=0.855;entryY=0;entryDx=0;entryDy=4.35;strokeWidth=5;entryPerimeter=0;endSize=20;" edge="1" parent="eSmSCLz9_kg1DbreLe7c-32" source="jQoCGR4VN1WWeZkf0c2d-9" target="ijIrtooHCrFyEg0t_PTl-3">
          <mxGeometry relative="1" as="geometry">
            <Array as="points">
              <mxPoint x="1528" y="520" />
            </Array>
          </mxGeometry>
        </mxCell>
        <mxCell id="eSmSCLz9_kg1DbreLe7c-28" value="&lt;font style=&quot;font-size: 30px;&quot;&gt;END SESSION&lt;/font&gt;" style="swimlane;whiteSpace=wrap;html=1;fillColor=#ffcd28;gradientColor=#ffa500;strokeColor=#d79b00;strokeWidth=3;startSize=70;" vertex="1" parent="eSmSCLz9_kg1DbreLe7c-32">
          <mxGeometry x="3020" y="50" width="570" height="1210" as="geometry" />
        </mxCell>
        <mxCell id="eSmSCLz9_kg1DbreLe7c-31" value="" style="endArrow=classic;html=1;rounded=0;entryX=0.574;entryY=1.002;entryDx=0;entryDy=0;entryPerimeter=0;endSize=20;strokeWidth=5;" edge="1" parent="eSmSCLz9_kg1DbreLe7c-32" target="1T24EYo-JzdGr0BOqpk3-26">
          <mxGeometry width="50" height="50" relative="1" as="geometry">
            <mxPoint x="3360" y="2070" as="sourcePoint" />
            <mxPoint x="3410" y="2020" as="targetPoint" />
          </mxGeometry>
        </mxCell>
      </root>
    </mxGraphModel>
  </diagram>
</mxfile>
